# Blender 3.3.1
# www.blender.org
mtllib cube.mtl
o Cube
v 1.000000 1.000000 -1.000000
v 1.000000 -1.000000 -1.000000
v 1.000000 1.000000 1.000000
v 1.000000 -1.000000 1.000000
v -1.000000 1.000000 -1.000000
v -1.000000 -1.000000 -1.000000
v -1.000000 1.000000 1.000000
v -1.000000 -1.000000 1.000000
vn -0.0000 1.0000 -0.0000
vn -0.0000 -0.0000 1.0000
vn -1.0000 -0.0000 -0.0000
vn -0.0000 -1.0000 -0.0000
vn 1.0000 -0.0000 -0.0000
vn -0.0000 -0.0000 -1.0000
vt 0.007809 0.004617
vt 0.999798 0.008315
vt 1.006833 1.003642
vt 1.009825 -0.004403
vt 0.007584 0.008315
vt 0.000549 1.003642
vt 0.007809 0.996844
vt 0.996449 0.003281
vt 0.999798 1.000528
vt 0.001090 0.003281
vt 1.009825 1.000943
vt 0.007584 1.000528
vt 1.000035 0.004617
vt 1.002298 1.001337
vt 1.006833 -0.002642
vt 0.005084 1.001337
vt 0.004479 -0.004403
vt 0.000549 -0.002642
vt 1.000035 0.996844
vt 0.996449 0.998641
vt 1.002298 0.004123
vt 0.001090 0.998641
vt 0.005084 0.004123
vt 0.004479 1.000943
s 0
usemtl Material
f 1/1/1 5/13/1 7/19/1 3/7/1
f 4/10/2 3/8/2 7/20/2 8/22/2
f 8/23/3 7/21/3 5/14/3 6/16/3
f 6/17/4 2/4/4 4/11/4 8/24/4
f 2/5/5 1/2/5 3/9/5 4/12/5
f 6/18/6 5/15/6 1/3/6 2/6/6
